<?xml version="1.0" standalone="no"?>
<!DOCTYPE svg PUBLIC "-//W3C//DTD SVG 20010904//EN"
 "http://www.w3.org/TR/2001/REC-SVG-20010904/DTD/svg10.dtd">
<svg version="1.0" xmlns="http://www.w3.org/2000/svg"
 width="2000.000000pt" height="2000.000000pt" viewBox="0 0 2000.000000 2000.000000"
 preserveAspectRatio="xMidYMid meet">

<g transform="translate(0.000000,2000.000000) scale(0.100000,-0.100000)"
fill="#000000" stroke="none">
<path d="M10400 18225 c0 -278 -1 -506 -2 -507 -2 -2 -1078 -5 -2393 -9 -2139
-5 -2398 -7 -2470 -22 -130 -26 -179 -37 -195 -46 -9 -5 -31 -12 -50 -16 -19
-4 -39 -11 -45 -15 -5 -4 -26 -11 -45 -15 -19 -4 -41 -11 -50 -16 -8 -4 -60
-30 -115 -57 -109 -53 -172 -88 -194 -105 -7 -6 -22 -16 -32 -22 -71 -39 -222
-166 -323 -269 -106 -110 -214 -254 -293 -391 -37 -63 -117 -237 -127 -275 -4
-14 -11 -34 -16 -45 -13 -31 -36 -113 -54 -195 -10 -41 -23 -88 -29 -105 -15
-39 -23 -7670 -8 -7786 9 -64 16 -105 36 -194 2 -11 9 -36 14 -55 5 -19 15
-55 22 -80 6 -25 16 -49 20 -54 5 -6 9 -16 9 -24 0 -13 6 -30 52 -132 40 -90
72 -151 136 -257 37 -62 150 -206 232 -296 93 -103 360 -307 457 -349 16 -7
30 -15 33 -18 5 -6 101 -54 110 -55 3 -1 26 -11 52 -23 26 -12 51 -22 56 -22
5 0 23 -7 38 -15 16 -8 38 -15 49 -15 12 0 25 -4 30 -9 11 -10 78 -27 181 -45
38 -7 77 -17 85 -22 14 -9 1469 -23 1469 -14 0 3 -174 179 -388 393 l-387 387
-270 4 c-250 3 -327 8 -365 23 -8 3 -22 5 -32 4 -9 -1 -19 3 -23 9 -3 5 -17
10 -30 10 -13 0 -27 5 -30 10 -3 6 -13 10 -21 10 -15 0 -89 30 -134 54 -14 8
-41 22 -60 33 -19 10 -37 20 -40 23 -3 3 -31 23 -62 44 -50 34 -184 164 -228
221 -56 72 -88 124 -121 195 -43 93 -49 108 -49 122 0 8 -4 18 -9 24 -9 9 -24
66 -41 154 -12 59 -12 7561 0 7620 16 83 32 145 40 155 5 6 11 27 15 48 4 20
11 37 16 37 5 0 9 6 9 13 0 20 53 117 104 192 65 94 280 305 311 305 3 0 22
12 41 26 19 15 34 22 34 18 0 -5 4 -4 8 2 9 14 134 74 153 74 8 0 19 4 24 9 6
5 33 14 60 21 28 6 70 16 95 22 32 8 957 12 3288 15 1783 2 3242 5 3242 8 0 2
-403 407 -895 900 l-895 895 0 -505z"/>
<path d="M11920 17710 c0 -3 174 -179 388 -392 l387 -386 280 -6 c154 -3 300
-10 325 -15 87 -18 135 -32 167 -46 17 -8 36 -15 41 -15 14 0 115 -52 123 -63
3 -5 9 -8 13 -7 4 1 37 -17 74 -41 85 -55 247 -215 308 -304 51 -75 104 -172
104 -192 0 -7 4 -13 9 -13 5 0 12 -17 16 -37 4 -21 10 -42 15 -48 8 -10 24
-72 40 -155 12 -59 12 -7561 0 -7620 -17 -88 -32 -145 -41 -154 -5 -6 -9 -16
-9 -24 0 -19 -50 -132 -88 -197 -17 -30 -52 -81 -82 -120 -77 -100 -235 -238
-332 -289 -24 -13 -53 -28 -63 -34 -42 -24 -139 -63 -169 -69 -17 -3 -37 -10
-43 -16 -7 -5 -19 -7 -27 -4 -7 3 -17 2 -22 -2 -35 -31 -182 -32 -3377 -29
-1758 2 -3196 1 -3195 -2 1 -3 406 -408 900 -900 l898 -895 0 501 c0 448 2
503 16 508 9 3 1065 6 2347 7 1283 0 2364 4 2402 9 125 16 314 56 330 71 5 5
18 9 30 9 11 0 33 7 49 15 15 8 33 15 38 15 5 0 30 10 56 22 26 12 49 22 52
23 9 1 105 49 110 55 3 3 18 11 33 18 26 11 182 111 217 138 61 48 162 134
198 168 64 61 230 266 274 339 45 75 88 151 107 192 59 128 81 181 81 197 0 8
4 18 9 24 4 5 14 29 20 54 7 25 17 61 22 80 5 19 12 44 14 55 18 82 27 127 33
170 4 28 7 1785 7 3905 0 2889 -3 3865 -12 3895 -6 22 -19 74 -28 115 -44 192
-101 338 -209 535 -58 106 -192 279 -301 389 -94 95 -289 256 -310 256 -4 0
-21 10 -38 23 -39 27 -57 37 -182 99 -55 27 -107 53 -115 57 -9 5 -31 12 -50
16 -19 4 -39 11 -45 15 -5 4 -26 11 -45 15 -19 4 -41 11 -50 16 -29 16 -231
55 -335 65 -75 7 -1365 11 -1365 4z"/>
<path d="M5905 16322 c-16 -1 -37 -6 -45 -9 -8 -3 -21 -5 -27 -4 -7 1 -27 -6
-45 -16 -18 -10 -37 -18 -43 -19 -19 -2 -50 -18 -81 -41 -17 -12 -33 -21 -36
-18 -3 3 -23 -15 -45 -39 -22 -25 -43 -42 -46 -39 -4 3 -10 -3 -13 -13 -4 -10
-23 -33 -43 -51 -20 -18 -36 -36 -37 -40 -2 -20 -19 -49 -35 -61 -10 -7 -21
-28 -25 -47 -3 -19 -10 -35 -14 -35 -4 0 -15 -39 -24 -87 -15 -80 -16 -418
-16 -3628 1 -2409 4 -3558 11 -3595 6 -30 15 -61 21 -67 6 -7 8 -20 4 -28 -3
-8 -2 -15 2 -15 5 0 14 -16 22 -35 8 -19 17 -35 22 -35 4 0 7 -3 6 -7 -3 -15
22 -63 33 -63 6 0 9 -5 7 -11 -4 -12 143 -164 156 -160 4 1 14 -6 21 -16 8
-10 17 -19 22 -19 26 -5 53 -18 53 -26 0 -5 4 -7 9 -3 5 3 12 1 15 -4 3 -5 32
-17 64 -26 31 -9 70 -21 86 -26 38 -12 7154 -12 7192 0 16 5 55 17 86 26 32 9
61 21 64 26 3 5 10 7 15 4 5 -4 9 -2 9 3 0 8 27 21 53 26 5 0 14 9 22 19 7 10
17 17 21 16 13 -4 160 148 156 160 -2 6 1 11 7 11 11 0 36 48 33 63 -1 4 2 7
6 7 5 0 14 16 22 35 8 19 17 35 22 35 4 0 5 7 2 15 -4 8 -2 21 4 28 6 6 15 37
21 67 15 79 15 7114 0 7196 -6 32 -15 64 -21 71 -5 7 -7 17 -4 22 4 5 2 12 -3
15 -5 3 -12 21 -15 41 -4 19 -15 40 -25 47 -16 12 -33 41 -35 61 -1 4 -17 22
-37 40 -20 18 -39 41 -43 51 -3 10 -9 16 -13 13 -3 -3 -24 14 -46 39 -22 24
-42 42 -45 39 -3 -3 -19 6 -36 18 -31 23 -62 39 -81 41 -5 1 -25 9 -43 19 -19
10 -40 16 -47 14 -7 -3 -18 0 -24 6 -9 9 -868 12 -3589 12 -1967 0 -3590 -1
-3607 -3z m3595 -2517 l0 -445 -670 0 -670 0 0 -365 0 -365 630 0 630 0 0
-420 0 -420 -630 0 -630 0 0 -415 0 -415 695 0 695 0 0 -440 0 -440 -1255 0
-1255 0 0 2078 c0 1143 3 2082 7 2085 3 4 557 7 1230 7 l1223 0 0 -445z m2229
435 c31 -6 81 -14 111 -19 107 -19 165 -33 174 -42 6 -5 16 -9 24 -9 8 0 47
-15 88 -34 237 -112 394 -289 490 -556 69 -190 91 -299 115 -556 21 -221 -15
-484 -91 -662 -112 -263 -308 -459 -570 -570 -241 -102 -366 -121 -782 -122
l-298 0 0 -795 0 -795 -560 0 -560 0 0 2078 c0 1143 3 2082 7 2085 11 11 1790
8 1852 -3z"/>
<path d="M10990 12956 l0 -486 109 0 c108 0 215 17 262 43 132 70 191 155 224
321 50 254 -31 477 -207 571 -51 27 -60 28 -220 33 l-168 4 0 -486z"/>
<path d="M13357 4544 c-183 -33 -317 -137 -400 -308 -24 -50 -52 -118 -61
-151 -9 -33 -21 -73 -26 -90 -30 -99 -38 -700 -11 -835 28 -134 67 -216 142
-291 52 -52 165 -119 200 -119 8 0 19 -4 24 -9 23 -20 253 -53 375 -53 98 -1
191 23 260 68 169 107 245 385 244 899 -1 418 -43 602 -168 725 -43 43 -155
120 -172 120 -4 0 -20 7 -37 15 -39 18 -195 45 -251 44 -22 0 -76 -7 -119 -15z
m207 -355 c25 -30 37 -55 41 -88 4 -25 10 -68 16 -94 5 -26 9 -202 9 -391 0
-356 -11 -501 -44 -565 -23 -43 -67 -71 -115 -71 -33 0 -47 7 -79 38 -24 22
-44 53 -51 77 -22 78 -34 499 -22 756 12 261 21 303 72 352 25 23 38 27 83 27
51 0 56 -2 90 -41z"/>
<path d="M7863 4510 c-90 -20 -199 -70 -220 -100 -8 -11 -22 -20 -32 -20 -10
0 -24 -12 -32 -27 -8 -16 -21 -35 -30 -43 -48 -45 -99 -215 -99 -332 0 -97 53
-278 82 -278 4 0 8 -5 8 -12 0 -17 111 -128 127 -128 7 0 13 -4 13 -8 0 -8
142 -82 157 -82 4 0 34 -13 67 -29 34 -16 95 -45 137 -64 104 -48 135 -80 149
-154 18 -88 1 -168 -44 -210 -34 -31 -89 -53 -136 -53 -35 0 -110 32 -110 48
0 7 -6 23 -14 35 -16 25 -36 113 -36 157 l0 30 -205 0 -205 0 0 -68 c0 -132
41 -235 131 -329 63 -65 110 -91 222 -122 105 -29 304 -29 435 -1 135 28 306
119 286 152 -3 4 6 14 19 22 13 9 29 32 37 51 8 19 18 35 24 35 5 0 7 3 4 6
-4 3 1 22 9 42 20 47 43 172 43 238 0 86 -32 224 -52 224 -5 0 -8 6 -8 13 0
16 -111 127 -128 127 -7 0 -12 4 -12 8 0 8 -46 35 -63 36 -4 1 -11 6 -15 11
-4 6 -32 23 -62 37 -81 38 -330 161 -357 176 -51 29 -84 142 -64 219 13 49 66
99 114 108 46 9 108 -9 137 -40 27 -28 28 -34 37 -123 l6 -62 205 2 206 3 -3
65 c-1 36 -9 90 -18 120 -18 64 -53 140 -65 140 -4 0 -8 5 -8 12 0 16 -81 98
-97 98 -7 0 -13 4 -13 8 0 11 -80 49 -133 64 -72 20 -300 19 -394 -2z"/>
<path d="M6669 4502 l-257 -2 -4 -28 c-3 -15 -33 -135 -67 -267 -35 -132 -78
-303 -97 -380 -19 -77 -41 -162 -49 -190 -8 -27 -16 -61 -18 -75 -3 -14 -10
-45 -17 -70 -7 -25 -13 -52 -15 -60 -2 -8 -8 -35 -15 -60 -7 -25 -13 -52 -15
-60 -2 -8 -15 -60 -30 -115 -35 -129 -115 -448 -115 -457 0 -4 103 -9 228 -10
l228 -3 2 25 c1 14 6 39 11 55 6 17 12 57 16 90 3 33 11 77 16 98 l10 37 184
0 c102 0 188 0 193 1 7 0 19 -48 49 -211 l18 -95 226 5 226 5 -107 430 c-60
237 -127 502 -151 590 -23 88 -44 171 -46 185 -3 14 -11 45 -19 70 -7 25 -15
58 -18 73 -3 16 -10 43 -15 60 -6 18 -12 45 -15 60 -3 16 -10 43 -15 60 -6 18
-12 43 -15 57 -7 40 -44 182 -48 183 -2 1 -118 1 -259 -1z m30 -487 c11 -73
28 -176 56 -335 34 -194 44 -255 47 -275 3 -19 -3 -20 -129 -23 -103 -2 -133
0 -132 10 0 7 4 36 10 63 5 28 13 75 18 105 5 30 17 96 26 145 9 50 23 126 30
170 27 160 36 209 42 218 11 17 21 -9 32 -78z"/>
<path d="M10170 3616 l0 -896 230 0 230 0 0 340 0 340 83 0 c45 0 129 7 187
14 155 21 223 46 303 107 161 126 215 311 168 579 -29 165 -113 298 -222 352
-104 51 -119 52 -561 56 l-418 4 0 -896z m655 551 c64 -36 89 -92 89 -202 0
-73 -4 -98 -21 -130 -41 -78 -89 -105 -188 -105 l-75 0 0 224 c0 170 3 226 13
229 6 3 41 6 77 6 50 1 74 -5 105 -22z"/>
<path d="M11500 3616 l0 -896 230 0 230 0 0 365 0 365 99 0 c93 0 101 -2 132
-27 56 -48 59 -65 59 -361 0 -217 3 -277 15 -305 l15 -36 225 -3 c124 -2 225
0 225 4 0 4 -6 27 -14 50 -11 32 -16 113 -18 323 l-3 280 -28 50 c-43 76 -90
116 -196 164 -21 10 -14 25 17 35 27 9 108 60 127 81 58 62 84 138 91 268 11
190 -19 300 -109 398 -51 56 -97 89 -157 114 -41 17 -86 19 -492 23 l-448 4 0
-896z m645 561 c87 -34 110 -75 110 -197 -1 -106 -15 -147 -66 -196 -29 -27
-36 -29 -130 -32 l-99 -4 0 215 c0 163 3 217 13 220 23 10 142 5 172 -6z"/>
<path d="M4850 3615 l0 -885 525 0 525 0 0 175 0 175 -300 0 -300 0 0 185 0
186 275 -3 275 -3 0 170 0 170 -275 -3 -275 -3 0 186 0 185 290 0 290 0 0 175
0 175 -515 0 -515 0 0 -885z"/>
<path d="M8688 4483 c22 -41 85 -183 86 -194 1 -3 12 -30 25 -60 85 -192 115
-262 132 -311 7 -21 17 -38 21 -38 4 0 8 -7 8 -15 0 -8 11 -38 24 -67 24 -52
77 -175 101 -233 7 -16 24 -58 39 -91 l26 -62 0 -341 0 -341 220 0 219 0 3
370 c2 232 7 373 13 378 13 9 45 78 45 97 0 8 4 15 10 15 5 0 9 3 8 8 -1 7 -1
9 56 142 21 47 47 108 58 135 12 28 31 73 43 100 12 28 32 75 45 105 23 55 48
111 90 205 12 28 23 55 24 60 2 9 33 80 57 126 4 9 5 20 2 23 -9 9 -483 7
-484 -1 0 -5 -2 -15 -5 -23 -20 -74 -63 -230 -112 -405 -50 -180 -61 -210 -78
-210 -14 0 -20 9 -25 35 -5 30 -44 175 -109 400 -10 36 -27 98 -37 138 l-17
72 -249 0 c-233 0 -247 -1 -239 -17z"/>
</g>
</svg>
